<svg width="118" height="70" viewBox="0 0 118 70" fill="none" xmlns="http://www.w3.org/2000/svg">
<g clip-path="url(#clip0_2255_100)">
<path d="M57.3668 44.3335C52.0816 44.1011 48.0899 41.9323 45.3113 37.6529C43.288 34.5364 42.5664 31.0918 43.1947 27.4459C44.135 21.9929 47.2003 18.112 52.3814 16.1323C56.8999 14.4055 61.2488 15.0545 65.2257 17.8117C68.1272 19.8233 70.0546 22.5797 70.8795 26.0079C72.2409 31.6704 70.8181 36.5874 66.5839 40.609C64.6671 42.4299 62.3521 43.5765 59.7251 44.0258C58.8806 44.1706 58.0246 44.2484 57.3668 44.3327V44.3335ZM54.8356 29.7267C54.8356 31.7171 54.8209 33.7074 54.8405 35.6969C54.8561 37.2994 56.3322 38.4091 57.8812 38.0155C59.0116 37.7282 59.7071 36.7568 59.7096 35.4285C59.7145 31.6393 59.7128 27.8493 59.7087 24.0601C59.7087 23.8023 59.6866 23.5413 59.6399 23.2876C59.3385 21.6434 57.4856 20.7432 56.0824 21.5771C55.2567 22.0682 54.8586 22.8571 54.8463 23.7966C54.8192 25.773 54.8381 27.7495 54.8373 29.7259L54.8356 29.7267Z" fill="black"/>
<path d="M67.616 14.835C67.8241 14.8252 67.9691 14.8129 68.1141 14.8129C70.8853 14.8121 73.6556 14.8178 76.4268 14.8047C76.775 14.8031 76.9585 14.925 77.1272 15.227C78.1962 17.142 79.2881 19.0448 80.3743 20.9501C80.412 21.0155 80.4718 21.0687 80.5578 21.1702C80.8822 20.6211 81.1869 20.112 81.4843 19.5981C82.3378 18.1249 83.1914 16.651 84.0359 15.1722C84.1695 14.9389 84.3103 14.8047 84.6052 14.8055C87.3355 14.8153 90.0649 14.8113 92.7951 14.8129C92.9 14.8129 93.0056 14.835 93.176 14.8538C93.117 14.9946 93.0835 15.1034 93.0286 15.2C91.5263 17.8401 90.0223 20.4803 88.5159 23.118C87.4289 25.0216 86.3304 26.9186 85.2565 28.8296C85.1762 28.972 85.1811 29.2404 85.263 29.3828C86.9021 32.2398 88.5609 35.0862 90.2099 37.9383C91.4493 40.0817 92.6788 42.23 93.9116 44.3775C93.937 44.4217 93.9436 44.4765 93.9763 44.5854C93.8084 44.6017 93.6675 44.6263 93.5266 44.6263C90.7423 44.6287 87.9572 44.623 85.1729 44.6345C84.8551 44.6361 84.6749 44.5174 84.525 44.2556C83.2577 42.0328 81.9831 39.8141 80.7085 37.5954C80.6225 37.4457 80.525 37.3025 80.4079 37.1167C79.4225 38.841 78.4632 40.5179 77.5065 42.1965C77.0953 42.9175 76.6988 43.6483 76.2687 44.3579C76.1876 44.4921 75.9771 44.6271 75.8264 44.6279C73.0151 44.6443 70.2029 44.6402 67.3908 44.6386C67.3252 44.6386 67.2597 44.6173 67.1319 44.5944C67.1909 44.4528 67.2278 44.33 67.29 44.2212C69.8146 39.8002 72.3409 35.3809 74.8672 30.9607C75.1506 30.4639 75.4463 29.9737 75.7043 29.4638C75.7732 29.328 75.7863 29.0947 75.7142 28.9687C73.5795 25.2491 71.4308 21.5377 69.2847 17.8254C68.7596 16.9178 68.2345 16.0102 67.7119 15.101C67.6791 15.0445 67.6668 14.9766 67.6177 14.8342L67.616 14.835Z" fill="black"/>
<path d="M53.7888 11.1965V10.6981C53.7888 8.43441 53.7888 6.17072 53.7888 3.90621C53.7888 3.30142 53.7871 3.2965 53.1695 3.33579C52.6796 3.36689 52.1906 3.41926 51.6999 3.44709C51.3788 3.46591 51.2617 3.60259 51.265 3.93486C51.2797 5.57165 51.26 7.20763 51.2797 8.84442C51.2846 9.24871 51.1773 9.39602 50.753 9.38375C49.7577 9.3551 48.76 9.36247 47.7639 9.38047C47.419 9.38702 47.3216 9.26426 47.3248 8.93035C47.3396 7.45724 47.3306 5.98494 47.3306 4.51183C47.3306 4.36451 47.3306 4.21638 47.3306 4.01833C47.1454 4.02733 47.0005 4.01997 46.8604 4.04288C43.6944 4.56338 40.5636 5.2402 37.4852 6.15271C34.723 6.97111 32.0141 7.94009 29.4002 9.14968C25.7148 10.8544 22.226 12.8906 19.0756 15.4734C16.519 17.571 14.2647 19.9419 12.4388 22.7097C10.1845 26.1273 8.83455 29.8478 8.62157 33.9537C8.60519 34.2679 8.49297 34.3719 8.17677 34.3711C5.59727 34.3612 3.01694 34.3604 0.437432 34.3711C0.108952 34.3727 0.0344093 34.2549 0.0180262 33.9439C-0.119591 31.3315 0.5644 28.8862 1.56131 26.5194C3.39129 22.1745 6.28945 18.6128 9.79378 15.5111C12.5216 13.0968 15.5368 11.095 18.716 9.33137C21.5347 7.76823 24.4713 6.46616 27.4883 5.33513C30.8001 4.09362 34.1734 3.04689 37.6359 2.33489C40.4653 1.75301 43.3118 1.22105 46.1731 0.833128C48.7649 0.482036 51.3854 0.339634 53.9952 0.139127C55.1232 0.0523769 56.2593 0.0605609 57.3898 -5.47851e-07C57.7477 -0.0188237 57.8608 0.079384 57.8591 0.447663C57.8444 3.88411 57.8436 7.32138 57.8526 10.7578C57.8534 11.1097 57.7633 11.235 57.3947 11.2276C56.3167 11.2055 55.2378 11.2202 54.1598 11.2186C54.0533 11.2186 53.9477 11.2055 53.7879 11.1949L53.7888 11.1965Z" fill="black"/>
<path d="M33.2616 26.8246C33.4967 26.8246 33.6712 26.8246 33.8449 26.8246C36.2065 26.8246 38.5681 26.8312 40.9289 26.8181C41.277 26.8165 41.4024 26.8983 41.4007 27.2707C41.3852 29.698 41.3852 32.1254 41.4007 34.5528C41.4032 34.9292 41.2623 35.0086 40.9223 35.0078C38.5337 34.9972 36.1451 35.0021 33.7564 35.0029C33.1879 35.0029 33.1863 35.0053 33.1855 35.5692C33.1797 38.4197 33.1765 41.2694 33.1699 44.1198C33.1691 44.6616 33.1642 44.6624 32.6301 44.6624C30.1595 44.6624 27.689 44.6559 25.2184 44.6706C24.8571 44.6731 24.7523 44.5659 24.7531 44.209C24.7687 37.1725 24.7711 30.1359 24.7793 23.0985C24.7826 20.4935 24.7998 17.8894 24.79 15.2844C24.7883 14.8932 24.8932 14.7795 25.2905 14.7803C30.9418 14.795 36.5923 14.7966 42.2436 14.7893C42.5852 14.7893 42.7138 14.8687 42.7368 15.232C42.8891 17.6537 43.0595 20.0745 43.2414 22.4945C43.2709 22.8881 43.1242 22.9814 42.7597 22.9798C39.7977 22.9692 36.8356 22.9741 33.8735 22.9741C33.4662 22.9741 33.2622 23.1836 33.2616 23.6026C33.2616 24.651 33.2616 25.6993 33.2616 26.8246Z" fill="black"/>
<path d="M60.0192 5.58563C60.0192 3.86781 60.0217 2.15 60.0168 0.43218C60.016 0.167019 60.0438 -0.0179392 60.3854 0.00252077C63.2041 0.165382 66.0351 0.214486 68.8407 0.505017C71.7798 0.810279 74.6976 1.32832 77.6195 1.78417C80.4677 2.22774 83.2495 2.96594 85.9912 3.84081C88.0678 4.50371 90.1403 5.19362 92.1644 5.99892C95.5876 7.36237 98.8798 9.00162 102.001 10.9764C104.497 12.5559 106.861 14.3024 109.01 16.3287C111.872 19.0262 114.281 22.0632 115.941 25.6519C116.831 27.5768 117.498 29.577 117.784 31.6819C117.89 32.461 117.837 33.2606 117.864 34.0503C117.877 34.394 117.647 34.3629 117.425 34.3629C115.2 34.3613 112.975 34.3597 110.749 34.3597C109.743 34.3597 109.753 34.3597 109.661 33.3555C109.332 29.7513 108.175 26.4269 106.285 23.3432C103.804 19.2938 100.43 16.1266 96.5567 13.4472C92.9934 10.983 89.1417 9.07282 85.0935 7.55551C80.9961 6.0202 76.7832 4.90963 72.4613 4.21727C71.9633 4.13706 71.4628 4.06586 70.9713 3.9562C70.6191 3.87763 70.5117 3.98321 70.515 4.33594C70.5281 5.83606 70.5076 7.33618 70.5281 8.8363C70.5339 9.24468 70.4167 9.38381 69.9965 9.37072C69.0283 9.34126 68.0584 9.34535 67.0893 9.3699C66.7027 9.37972 66.57 9.27087 66.5757 8.86822C66.597 7.20442 66.5749 5.54062 66.5921 3.87681C66.5962 3.51999 66.4922 3.40133 66.1334 3.39969C65.6435 3.39642 65.1545 3.32685 64.6646 3.29166C64.088 3.24992 64.0863 3.25238 64.0863 3.8539C64.0863 6.11759 64.0863 8.38127 64.0863 10.6458C64.0863 11.2219 64.0847 11.2219 63.4957 11.2228C62.4718 11.2228 61.4478 11.2113 60.4247 11.2293C60.0823 11.235 59.9799 11.118 59.9824 10.7825C59.9955 9.05072 59.9889 7.31818 59.9889 5.58645C59.9996 5.58645 60.0102 5.58645 60.0209 5.58645L60.0192 5.58563Z" fill="black"/>
<path d="M4.35706 36.535C5.62675 36.535 6.89643 36.5457 8.16612 36.5285C8.51508 36.5236 8.63631 36.6398 8.66744 36.9876C9.0762 41.4986 10.7956 45.4842 13.5144 49.077C15.8334 52.141 18.6676 54.6453 21.8132 56.8231C24.1838 58.464 26.6978 59.8544 29.3133 61.0567C31.5922 62.1034 33.9358 62.9881 36.3294 63.7476C39.5478 64.7689 42.826 65.5284 46.1526 66.0767C49.8191 66.6807 53.5119 67.0392 57.2308 67.0956C57.8386 67.1046 57.8386 67.1112 57.8395 67.7029C57.8395 68.3437 57.8296 68.9853 57.8436 69.6261C57.8501 69.9109 57.7518 70.0165 57.4635 69.9985C54.3859 69.8029 51.2994 69.7055 48.2333 69.397C45.5784 69.1293 42.9366 68.6841 40.3088 68.2078C37.5327 67.7045 34.8008 66.9982 32.1017 66.1553C29.238 65.2608 26.398 64.3106 23.6571 63.0896C19.8513 61.3938 16.2184 59.3978 12.8566 56.918C10.3229 55.0488 7.99246 52.9676 5.96752 50.555C3.1652 47.2159 1.10585 43.4939 0.246563 39.1809C0.108946 38.4902 0.0761798 37.7765 0.0335839 37.0711C0.0024562 36.5547 0.0442329 36.5358 0.550468 36.5358C1.82015 36.5342 3.08984 36.5358 4.35952 36.5358L4.35706 36.535Z" fill="black"/>
<path d="M113.765 36.5315C114.979 36.5315 116.194 36.5438 117.409 36.5242C117.777 36.5184 117.869 36.6494 117.87 36.9988C117.876 38.4769 117.532 39.8919 117.103 41.2864C116.354 43.7252 115.214 45.9799 113.776 48.0848C111.934 50.7823 109.699 53.1188 107.198 55.2098C104.479 57.4833 101.515 59.3918 98.394 61.0556C95.6253 62.532 92.7672 63.8267 89.797 64.8366C87.2691 65.6968 84.7133 66.489 82.1355 67.1805C80.1113 67.7231 78.0454 68.1356 75.9771 68.4801C73.3828 68.9131 70.7755 69.3034 68.1583 69.5539C65.5665 69.8027 62.955 69.8534 60.3526 69.9942C60.0987 70.0081 59.9742 69.9205 59.9782 69.6463C59.9881 68.9098 59.9856 68.1732 59.9799 67.4367C59.9782 67.21 60.0782 67.1134 60.2961 67.1093C60.6508 67.1028 61.0055 67.0913 61.361 67.0831C66.3005 66.9702 71.1834 66.3818 76.0115 65.3318C79.0006 64.6819 81.9364 63.8406 84.8018 62.7751C88.6174 61.3552 92.2725 59.6013 95.6793 57.3524C98.3514 55.5887 100.825 53.5918 102.988 51.225C105.633 48.3304 107.695 45.0789 108.791 41.2946C109.206 39.8632 109.392 38.3639 109.648 36.89C109.7 36.5913 109.797 36.5037 110.08 36.5062C111.309 36.5152 112.537 36.5102 113.766 36.5102V36.5299L113.765 36.5315Z" fill="black"/>
<path d="M46.9972 50.8364C46.998 52.5002 46.2673 53.9062 44.4873 54.5659C42.5951 55.2672 40.6799 55.2304 38.8556 54.3032C37.3435 53.5347 36.8028 52.0035 36.9839 50.4542C37.2059 48.5597 38.3273 47.4949 40.1392 47.0792C41.4073 46.7878 42.677 46.7575 43.9458 47.0734C45.8889 47.5571 46.9316 48.8453 46.9972 50.8356V50.8364ZM43.1267 50.9592C43.0997 50.4714 43.107 50.1007 43.053 49.7398C42.9547 49.0752 42.6295 48.7733 42.0585 48.7577C41.4056 48.7397 40.9494 49.0401 40.9027 49.707C40.8437 50.5525 40.8716 51.4142 40.9641 52.258C41.0321 52.8767 41.3999 53.1067 41.975 53.0936C42.5156 53.0813 42.8842 52.7883 42.9891 52.2163C43.0718 51.7645 43.0915 51.3005 43.1267 50.9592Z" fill="black"/>
<path d="M58.3277 46.8303C59.8415 46.8794 61.1251 47.0407 62.1605 47.9573C63.3122 48.9778 63.6096 50.302 63.3229 51.7497C62.9542 53.6091 61.6485 54.4979 59.8882 54.8465C58.4645 55.1289 57.0621 55.0536 55.7097 54.5069C53.3693 53.5608 52.986 51.2071 53.6692 49.3624C54.2196 47.8754 55.4467 47.2624 56.8991 46.9965C57.4332 46.8983 57.9803 46.8696 58.3268 46.8303H58.3277ZM57.1579 50.7627C57.2325 51.3086 57.2587 51.8021 57.3758 52.2735C57.5306 52.8963 57.8558 53.1156 58.4186 53.0862C58.9576 53.0583 59.3524 52.7645 59.3999 52.1802C59.4696 51.3184 59.4696 50.4468 59.4286 49.5834C59.4057 49.094 59.0452 48.8027 58.6119 48.7601C57.9967 48.6987 57.579 48.8771 57.42 49.3796C57.2751 49.8388 57.2357 50.3314 57.1579 50.7644V50.7627Z" fill="black"/>
<path d="M24.994 50.9035C24.994 49.7717 25.0038 48.6407 24.9874 47.5088C24.9825 47.1864 25.0873 47.0841 25.4076 47.0857C27.6046 47.0964 29.8016 47.0955 31.9985 47.0857C32.3065 47.0841 32.4532 47.1651 32.431 47.499C32.4089 47.8386 32.4097 48.1816 32.431 48.5212C32.4515 48.869 32.2959 48.9721 31.9699 48.968C31.0147 48.9566 30.0596 48.9738 29.1045 48.959C28.785 48.9541 28.6449 49.0597 28.6932 49.3821C28.7014 49.4353 28.7014 49.4918 28.6932 49.545C28.6326 49.9288 28.7711 50.0704 29.179 50.0557C30.0104 50.0246 30.8435 50.0606 31.6758 50.0401C32.028 50.0311 32.1779 50.1383 32.1501 50.5033C32.1255 50.8291 32.132 51.1581 32.1484 51.4846C32.1632 51.7882 32.0378 51.8905 31.7397 51.8856C30.8665 51.8725 29.9924 51.8963 29.12 51.8742C28.7719 51.8652 28.6777 51.9863 28.6883 52.3194C28.7104 53.0142 28.6851 53.7098 28.6998 54.4046C28.7055 54.6813 28.6212 54.7975 28.3304 54.7942C27.3482 54.7827 26.3652 54.7819 25.3831 54.7942C25.0734 54.7983 24.9874 54.6723 24.9907 54.3785C25.003 53.2196 24.9956 52.0608 24.9956 50.9019L24.994 50.9035Z" fill="black"/>
<path d="M84.3693 47.0881C84.7986 47.0881 85.1606 47.0881 85.5227 47.0881C86.2591 47.0881 86.9963 47.1028 87.7328 47.0815C88.0277 47.0733 88.1743 47.1822 88.2816 47.4441C88.6289 48.2862 88.9934 49.1218 89.3555 49.9574C89.4177 50.1006 89.4997 50.2348 89.6152 50.4517C89.9445 49.6848 90.2369 49.0023 90.5302 48.3206C90.5891 48.1831 90.6825 48.0529 90.7087 47.9105C90.8439 47.1625 91.3092 47.0103 92.0014 47.0741C92.6911 47.138 93.3915 47.0872 94.0877 47.0889C94.218 47.0889 94.3482 47.1028 94.5563 47.1151C94.1844 47.6986 93.8551 48.224 93.5168 48.7437C92.8402 49.7806 92.1504 50.8101 91.4845 51.8536C91.3821 52.0132 91.337 52.2333 91.3313 52.4273C91.3124 53.0812 91.3165 53.7359 91.3264 54.3898C91.3305 54.6672 91.2256 54.7826 90.943 54.7802C89.9469 54.772 88.9508 54.7712 87.9556 54.781C87.6639 54.7843 87.5779 54.6591 87.582 54.3865C87.5927 53.7187 87.596 53.0509 87.5771 52.3831C87.5722 52.2055 87.514 52.0066 87.4182 51.8569C86.4836 50.4034 85.535 48.9589 84.5929 47.5104C84.5217 47.4007 84.4693 47.2787 84.3685 47.0881H84.3693Z" fill="black"/>
<path d="M73.9603 47.0889C75.2423 47.0889 76.5251 47.0988 77.8071 47.0824C78.1478 47.0783 78.2723 47.1904 78.2527 47.5268C78.2314 47.8934 78.2388 48.2625 78.2502 48.6308C78.2592 48.9148 78.1364 49.0195 77.8587 49.0113C77.409 48.9991 76.9584 49.0081 76.5079 49.0089C76.0595 49.0089 75.8351 49.2266 75.8346 49.662C75.8346 51.1883 75.8223 52.7154 75.8427 54.2417C75.8477 54.6452 75.7371 54.7999 75.3144 54.7876C74.374 54.7606 73.432 54.7704 72.4908 54.7835C72.1754 54.7876 72.064 54.6812 72.0665 54.3579C72.0796 52.7228 72.0648 51.0868 72.0779 49.4516C72.0804 49.1177 71.9821 48.9884 71.638 49.0032C71.1203 49.0261 70.601 48.995 70.0833 49.0138C69.7589 49.0261 69.6033 48.9369 69.6295 48.5809C69.6557 48.215 69.6524 47.8443 69.6303 47.4777C69.6115 47.1675 69.7302 47.0807 70.0309 47.0832C71.3407 47.0963 72.6505 47.0889 73.9595 47.0889H73.9603Z" fill="black"/>
</g>
<defs>
<clipPath id="clip0_2255_100">
<rect width="117.871" height="70" fill="white"/>
</clipPath>
</defs>
</svg>
