<svg width="671" height="500" viewBox="0 0 671 500" fill="none" xmlns="http://www.w3.org/2000/svg">
<path d="M413.608 231.531H463.247C462.514 237.782 461.844 243.829 461.099 249.871C456.387 288.208 451.649 326.544 446.93 364.88C443.915 389.373 440.931 413.873 437.911 438.366C437.178 444.297 440.322 448.376 446.235 449.059C454.799 450.043 460.152 445.915 461.21 437.357C466.618 393.446 471.989 349.523 477.385 305.607C480.351 281.489 483.335 257.365 486.312 233.247C486.374 232.767 486.491 232.294 486.626 231.598H534.351C533.853 236.127 533.41 240.599 532.868 245.06C527.553 288.897 522.243 332.733 516.89 376.564C514.399 396.953 512.11 417.367 509.212 437.695C504.825 468.445 481.077 491 450.093 494.273C432.564 496.125 416.586 491.936 403.315 480.178C391.607 469.805 386.531 455.919 388.235 440.673C393.748 391.41 400.005 342.227 405.985 293.013C408.366 273.398 410.772 253.784 413.171 234.176C413.276 233.315 413.454 232.46 413.614 231.518L413.608 231.531Z" fill="black"/>
<path d="M670.303 281.631C665.32 279.016 660.311 276.395 654.811 273.509C654.479 276.241 654.085 278.247 654.085 280.252C654.085 280.911 654.989 281.852 655.703 282.178C659.468 283.913 663.258 285.611 667.135 287.076C669.503 287.974 670.395 289.272 669.626 291.745C669.257 292.933 669.183 294.213 668.956 295.572C663.732 293.074 658.718 290.675 653.285 288.072C652.953 291.124 652.682 293.646 652.393 296.286C656.362 297.855 660.151 299.504 664.046 300.845C666.975 301.854 668.242 303.447 667.208 306.542C666.938 307.354 666.913 308.246 666.747 309.243C661.751 307.274 656.915 305.373 651.532 303.257C651.304 305.742 650.953 307.742 651.033 309.729C651.058 310.338 652.153 311.163 652.922 311.446C656.158 312.652 659.432 313.771 662.735 314.756C665.283 315.519 666.285 316.928 665.486 319.555C665.178 320.57 665.117 321.659 664.895 323.019C660.084 321.345 655.457 319.739 650.818 318.121C649.791 322.28 651.815 325.935 655.771 327.295C658.373 328.187 660.994 329.048 663.837 329.995C663.541 332.173 663.265 334.185 662.932 336.628C659.862 335.736 657.075 334.911 654.276 334.124C650.037 332.93 647.686 334.419 646.616 339.12C650.609 340.073 654.577 341.187 658.613 341.925C661.493 342.454 662.434 343.783 661.659 346.558C661.382 347.561 661.37 348.644 661.204 349.942C655.802 348.871 650.72 347.869 645.342 346.804C645.035 349.185 644.776 351.203 644.45 353.701C646.364 354.095 648.24 354.464 650.111 354.864C651.753 355.215 653.39 355.571 655.02 355.959C658.572 356.804 660.004 359.216 659.315 363.194C654.313 362.45 649.292 361.706 643.767 360.887C643.404 363.059 643.041 365.219 642.611 367.778C647.859 368.498 652.898 369.187 658.349 369.931C657.998 372.189 657.678 374.275 657.303 376.699C652.036 376.072 646.991 375.469 641.614 374.829C641.294 377.228 641.005 379.431 640.66 382.033C645.921 382.753 650.947 383.448 656.288 384.181C654.86 392.591 654.645 401.592 646.634 406.576C638.027 411.935 628.503 415.368 617.841 415.761C628.983 413.3 635.246 406.348 637.639 395.76C637.879 394.695 636.723 393.317 636.218 392.087C635.031 392.659 633.308 392.917 632.742 393.859C630.773 397.15 629.174 400.669 627.494 404.133C625.457 408.323 622.178 410.999 618.001 413.036C612.949 415.497 607.929 416.826 602.176 415.109C604.422 414.5 606.545 414.07 608.556 413.337C610.679 412.562 612.697 411.51 614.746 410.556C619.151 408.501 621.44 404.576 623.544 400.503C624.362 398.922 625.162 397.335 625.919 395.729C626.78 393.889 626.688 392.142 624.694 391.188C622.707 390.241 621.268 391.176 620.437 393.102C619.889 394.369 619.373 395.649 618.893 396.947C615.915 404.97 610.064 409.88 602.029 412.248C598.639 413.245 595.132 413.91 591.637 414.488C589.988 414.759 589.404 415.392 589.078 417.017C584.851 438.329 580.538 459.623 576.231 480.917C574.318 490.361 569.777 494.704 560.136 495.135C554.365 495.393 548.502 494.864 542.762 494.071C535.342 493.043 528.986 486.466 530.278 477.004C534.013 449.613 537.28 422.16 540.664 394.72C540.799 393.6 540.651 391.908 539.938 391.299C533.09 385.454 532.401 377.8 533.231 369.636C533.342 368.572 533.527 367.52 533.717 366.154C540.928 367.446 547.991 368.707 555.054 369.975C556.026 370.147 556.998 370.313 557.971 370.497C560.364 370.953 561.988 369.913 562.259 367.606C562.511 365.459 560.985 364.536 558.93 364.29C551.19 363.348 543.457 362.345 535.717 361.361C535.237 361.299 534.763 361.201 534.29 361.115C534.148 360.764 533.92 360.493 533.945 360.241C534.646 353.572 533.33 354.316 540.122 355.141C546.496 355.916 552.852 356.784 559.22 357.59C561.896 357.928 563.416 356.864 563.575 354.439C563.735 352.04 562.203 351.117 560.099 350.902C552.532 350.145 544.964 349.413 537.397 348.662C536.812 348.607 536.234 348.465 535.317 348.305C535.557 346.367 535.797 344.479 536.074 342.251C540.331 342.528 544.343 342.762 548.354 343.051C552.298 343.334 556.229 343.673 560.173 343.986C563.366 344.239 565.027 343.205 565.212 340.842C565.409 338.363 564.062 337.059 560.893 336.936C553.984 336.665 547.068 336.474 540.159 336.265C539.193 336.234 538.227 336.265 536.904 336.265C537.157 333.785 537.378 331.669 537.575 329.725C542.257 329.725 546.681 329.676 551.111 329.737C555.159 329.792 559.207 329.952 563.256 330.106C565.643 330.199 567.23 329.06 567.255 326.747C567.285 324.403 565.655 323.345 563.299 323.351C555.208 323.382 547.111 323.363 538.676 323.363C538.873 321.333 539.07 319.241 539.31 316.78H550.698C554.753 316.78 558.801 316.78 562.856 316.78C568.67 316.78 569.679 315.611 568.934 309.446C559.416 309.797 549.88 310.141 539.938 310.51C540.153 308.431 540.356 306.548 540.584 304.358C548.434 303.767 556.1 303.189 563.76 302.617C564.941 302.531 566.123 302.469 567.304 302.352C569.71 302.106 570.842 300.771 570.559 298.353C570.288 296.015 568.811 295.154 566.615 295.375C558.955 296.138 551.301 296.926 543.648 297.701C543.081 297.756 542.509 297.793 541.716 297.861C541.777 296.84 541.888 295.984 541.869 295.129C541.796 292.398 543.125 291.487 545.807 291.278C553.578 290.675 561.33 289.777 569.088 288.983C571.635 288.724 573.235 287.106 572.835 285.033C572.38 282.646 570.817 281.895 568.454 282.246C560.278 283.464 552.089 284.602 543.488 285.827C543.703 283.852 543.611 281.92 544.214 280.234C544.509 279.403 546.022 278.677 547.087 278.505C554.87 277.213 562.677 276.038 570.485 274.9C572.687 274.58 574.791 274.211 574.508 271.325C574.219 268.354 572.054 268.021 569.697 268.433C562.124 269.75 554.562 271.134 547.001 272.506C546.17 272.654 545.352 272.888 544.066 273.189C546.072 262.429 549.572 253.28 559.466 247.798C570.872 241.479 582.962 237.105 595.704 234.496C603.413 232.915 611.048 234.355 618.69 235.29C620.548 235.518 622.393 235.887 624.239 236.2C629.321 237.062 632.779 239.88 634.858 244.623C635.874 246.943 637.252 249.139 638.698 251.225C639.134 251.852 640.353 251.939 641.214 252.271C641.497 251.385 642.106 250.462 642.008 249.619C641.472 245.042 639.651 241.276 634.994 239.504C633.8 239.049 632.656 238.471 631.235 237.831C637.578 237.886 643.693 241.516 646.191 246.746C647.637 249.773 648.745 252.954 650.154 255.999C650.517 256.781 651.446 257.297 652.11 257.937C652.565 257.039 653.562 256.018 653.384 255.267C652.565 251.797 651.427 248.407 650.467 245.202C653.021 246.377 655.98 247.724 657.057 251.569C657.715 253.914 659.069 256.061 660.151 258.276C660.656 259.309 661.253 260.294 661.813 261.303C662.286 260.934 662.76 260.564 663.228 260.195C662.366 257.759 661.499 255.329 660.644 252.905C668.439 258.251 672.684 270.925 670.297 281.655L670.303 281.631ZM636.138 359.804C635.523 359.509 635.271 359.318 634.994 359.269C615.663 355.867 596.221 353.301 576.65 351.763C573.733 351.535 572.614 352.612 572.361 355.35C572.109 358.094 573.376 359.257 576.04 359.571C588.573 361.041 601.093 362.616 613.62 364.148C620.646 365.009 627.666 365.865 634.975 366.751C635.381 364.333 635.751 362.142 636.138 359.798V359.804ZM643.109 300.771C642.58 300.494 642.34 300.316 642.069 300.23C622.615 294.065 602.705 292.49 582.458 294.305C580.181 294.508 579.172 295.886 579.264 298.107C579.375 300.857 581.098 301.454 583.491 301.411C595.612 301.208 607.75 300.833 619.736 303.269C627.057 304.758 634.366 306.321 641.983 307.914C642.352 305.545 642.715 303.244 643.103 300.771H643.109ZM645.355 285.882C628.429 279.114 601.66 276.561 584.42 279.896C581.885 280.388 580.716 281.674 581.098 284.165C581.485 286.682 583.313 287.051 585.528 286.946C592.529 286.608 599.537 286.122 606.545 286.153C618.425 286.196 629.727 289.629 641.079 292.65C642.069 292.914 643.078 293.105 644.204 293.357C644.481 291.838 644.721 290.687 644.899 289.524C645.078 288.361 645.195 287.186 645.355 285.894V285.882ZM637.996 344.983C637.19 344.737 636.821 344.595 636.433 344.515C617.287 340.356 597.814 338.855 578.342 337.36C575.714 337.157 574.139 338.671 574.121 341.175C574.102 343.599 575.407 344.552 577.8 344.805C591.828 346.275 605.843 347.813 619.846 349.456C625.507 350.12 631.13 351.117 637.024 351.997C637.356 349.554 637.664 347.352 637.99 344.977L637.996 344.983ZM641.116 315.371C640.777 315.236 640.426 315.033 640.057 314.965C632.305 313.519 624.565 311.999 616.789 310.677C605.056 308.677 593.224 308.536 581.362 309.077C579.517 309.163 578.083 309.674 577.622 311.704C576.908 314.879 578.046 316.343 581.356 316.448C590.228 316.731 599.143 316.583 607.966 317.426C616.186 318.213 624.313 320.028 632.471 321.431C636.501 322.126 640.39 319.481 641.109 315.365L641.116 315.371ZM647.176 271.301C629.979 265.856 612.894 261.986 594.935 264.939C591.926 265.437 588.856 265.529 585.817 265.862C583.639 266.102 582.741 267.554 582.845 269.566C582.956 271.664 584.402 272.383 586.315 272.334C587.201 272.31 588.081 272.193 588.967 272.094C602.669 270.544 616.296 270.187 629.721 274.235C635.068 275.847 640.494 277.213 645.995 278.727C646.21 277.822 646.444 277.072 646.561 276.303C646.788 274.752 646.948 273.196 647.176 271.301ZM639.104 337.237C639.153 336.714 639.258 336.326 639.221 335.951C638.821 332.241 635.437 329.011 630.607 328.193C624.393 327.141 618.154 326.039 611.885 325.523C601.18 324.631 590.443 324.12 579.707 323.572C576.908 323.431 575.345 325.32 575.788 327.873C576.188 330.168 577.806 330.752 579.892 330.851C588.358 331.238 596.873 331.269 605.283 332.223C616.518 333.496 627.672 335.514 639.104 337.249V337.237ZM633.48 373.992C632.287 373.783 631.524 373.623 630.755 373.524C617.158 371.839 603.554 370.153 589.957 368.473C584.672 367.821 579.4 367.021 574.09 366.634C572.866 366.541 571.537 367.858 570.257 368.522C571.118 369.919 571.857 371.414 572.897 372.663C573.29 373.137 574.373 373.082 575.148 373.192C590.37 375.364 605.591 377.542 620.812 379.677C624.67 380.218 628.552 380.624 632.644 381.117C632.939 378.582 633.185 376.447 633.474 373.992H633.48ZM580.587 410.267C580.624 410.587 580.661 410.907 580.692 411.227C582.476 411.406 584.285 411.867 586.038 411.701C589.262 411.399 592.474 410.858 595.649 410.193C604.625 408.311 609.338 401.863 612.605 393.975C613.349 392.179 612.906 390.665 611.134 389.712C609.221 388.684 607.707 389.306 606.588 391.035C606.052 391.859 605.622 392.751 605.148 393.619C600.989 401.266 595.612 407.32 586.303 408.532C584.353 408.785 582.488 409.677 580.587 410.273V410.267ZM609.941 234.81L609.522 235.684C615.201 237.228 618.825 241.086 621.889 245.725C622.689 246.937 624.288 247.761 625.685 248.407C627.426 249.207 628.484 248.555 628.497 246.451C628.509 243.067 626.257 239.061 622.984 238.034C618.72 236.693 614.297 235.868 609.941 234.822V234.81ZM631.555 411.762C640.476 409.99 644.155 403.284 646.831 395.729C647.09 395.003 646.259 393.889 645.939 392.96C645.01 393.44 644.001 393.822 643.177 394.443C642.771 394.744 642.672 395.483 642.469 396.037C640.242 402.238 637.166 407.855 631.561 411.762H631.555ZM644.998 406.92C649.625 403.376 651.962 399.057 653.55 394.258C653.205 394.043 652.867 393.822 652.522 393.606C650.117 397.858 647.711 402.109 644.992 406.914L644.998 406.92Z" fill="black"/>
<path d="M150.724 495.43C150.724 487.143 150.582 479.538 150.767 471.934C150.933 464.834 151.087 464.791 144.19 464.661C140.08 464.581 135.97 464.772 131.86 464.661C129.805 464.606 128.889 465.24 128.446 467.375C126.735 475.613 124.736 483.789 122.994 492.022C122.508 494.316 121.745 495.35 119.112 495.301C109.299 495.116 99.4796 495.227 89.1803 495.227C89.5986 493.517 89.9186 492.102 90.2939 490.699C106.623 429.826 122.982 368.965 139.237 308.074C140.018 305.158 141.181 304.136 144.301 304.192C155.929 304.407 167.563 304.278 179.191 304.278C180.274 304.278 181.357 304.278 183.209 304.278C183.209 307.619 183.16 310.689 183.215 313.753C183.886 348.324 184.544 382.901 185.264 417.472C185.781 442.223 186.335 466.981 186.993 491.726C187.067 494.569 186.138 495.301 183.431 495.282C174.509 495.209 165.588 495.368 156.661 495.43C154.581 495.442 152.496 495.43 150.724 495.43ZM152.76 373.137C152.613 373.087 152.471 373.044 152.323 372.995C147.186 393.409 142.055 413.823 136.868 434.453H151.69C152.047 413.952 152.403 393.544 152.76 373.13V373.137Z" fill="black"/>
<path d="M21.4099 278.702C22.3081 271.251 23.1449 264.348 23.9816 257.439C25.612 244.008 27.2917 230.577 28.8175 217.134C29.1005 214.642 30.0788 214.033 32.5029 214.039C126.427 214.1 220.357 214.094 314.282 214.1C315.284 214.1 316.287 214.193 317.702 214.267C317.229 218.309 316.798 222.142 316.33 225.962C314.355 242.144 312.368 258.325 310.375 274.5C309.858 278.708 309.84 278.708 305.527 278.708C212.218 278.708 118.903 278.708 25.5936 278.708C24.3815 278.708 23.1757 278.708 21.416 278.708L21.4099 278.702ZM170.067 242.359C170.171 232.89 165.065 225.895 156.802 224.191C138.338 220.376 122.6 234.939 125.067 253.618C125.947 260.269 129.522 264.939 135.877 267.313C152.544 273.546 169.864 260.903 170.067 242.359ZM215.072 267.941C212.39 261.672 209.923 255.901 207.437 250.093C208.735 249.367 209.726 248.862 210.667 248.271C215.94 244.955 218.856 237.781 217.324 231.973C216.057 227.162 211.775 224.455 204.705 224.215C200.405 224.067 196.098 224.277 191.797 224.123C189.564 224.043 188.574 224.621 188.241 227.045C187.128 235.16 185.731 243.239 184.445 251.335C183.59 256.75 182.741 262.17 181.83 267.966C184.451 267.966 186.691 267.861 188.912 267.996C190.948 268.119 191.853 267.387 192.093 265.308C192.548 261.444 193.169 257.599 193.895 253.772C194.068 252.867 194.935 252.092 195.477 251.262C196.4 251.981 197.772 252.51 198.171 253.452C199.888 257.506 201.248 261.702 202.903 265.781C203.253 266.649 204.262 267.781 205.038 267.843C208.169 268.076 211.332 267.941 215.054 267.941H215.072ZM304.099 229.316C298.623 222.48 285.955 221.668 279.077 227.451C271.079 234.176 272.469 244.709 281.932 248.973C284.073 249.939 286.454 250.517 288.367 251.803C289.512 252.572 290.687 254.461 290.533 255.679C290.355 257.094 288.989 258.823 287.672 259.5C286.269 260.22 284.122 260.404 282.639 259.875C279.631 258.798 276.856 257.076 273.65 255.445C272.143 257.328 270.267 259.672 268.445 261.948C274.733 269.534 285.802 270.913 294.04 265.455C298.783 262.311 301.171 257.882 300.968 252.221C300.771 246.776 296.815 244.34 292.489 242.328C290.539 241.424 288.367 240.845 286.669 239.615C285.463 238.735 283.98 236.779 284.245 235.708C284.596 234.305 286.497 232.386 287.82 232.312C290.441 232.164 293.166 232.982 295.763 233.708C296.956 234.041 297.947 235.087 299.226 235.942C300.894 233.678 302.45 231.555 304.099 229.316ZM78.8312 267.959C81.4891 267.959 83.8209 267.849 86.1343 267.99C88.0723 268.107 88.8967 267.338 89.1305 265.462C89.5366 262.213 90.2688 258.989 90.5272 255.734C90.7671 252.75 91.7946 251.686 95.0308 251.581C98.9192 251.458 103.054 250.843 106.573 249.287C112.682 246.586 115.549 238.907 113.87 231.973C112.682 227.07 108.203 224.32 101.011 224.178C97.1165 224.104 93.2158 224.332 89.3336 224.104C86.6634 223.944 85.5805 224.781 85.1991 227.494C83.8455 237.025 82.252 246.524 80.7447 256.036C80.1417 259.85 79.5203 263.665 78.8312 267.959ZM33.801 261.973C41.5409 271.657 55.7409 270.051 62.3979 262.927C68.815 256.054 67.1415 246.998 58.811 242.851C56.7991 241.848 54.6765 241.067 52.64 240.113C50.6097 239.16 48.6778 237.997 49.4592 235.271C50.2036 232.675 52.3939 231.629 54.7319 232.078C58.0358 232.712 61.2166 233.973 65.0127 235.136C65.6833 234.25 66.8339 232.576 68.1382 231.038C69.4179 229.525 69.2149 228.522 67.6521 227.273C61.3151 222.216 50.0129 222.4 43.9404 227.796C36.4528 234.447 37.8063 244.457 46.7951 248.727C48.9177 249.736 51.3234 250.296 53.206 251.625C54.5042 252.535 56.0362 254.584 55.8086 255.814C55.5255 257.322 53.5998 259.524 52.2401 259.629C49.453 259.85 46.4814 259.155 43.7558 258.294C42.1377 257.783 40.8395 256.239 39.246 255.045C37.3941 257.396 35.6345 259.635 33.7949 261.979L33.801 261.973ZM262.533 224.172C252.67 224.172 242.863 224.141 233.056 224.24C232.429 224.24 231.42 225.107 231.254 225.741C230.724 227.765 230.509 229.875 230.091 232.459H241.042C239.159 244.494 237.351 256.042 235.48 267.966C238.157 267.966 240.292 267.843 242.408 268.003C244.623 268.169 245.367 267.313 245.693 265.117C247.102 255.605 248.708 246.118 250.296 236.637C251.003 232.386 251.058 232.398 255.402 232.398C262.644 232.398 262.693 232.349 262.804 224.916C262.804 224.824 262.736 224.726 262.533 224.184V224.172Z" fill="black"/>
<path d="M100.316 373.149H68.4337C68.6614 370.805 68.8336 368.566 69.1043 366.344C69.9534 359.484 70.8455 352.624 71.7192 345.764C71.7561 345.469 71.7745 345.168 71.8114 344.866C72.5067 338.547 70.4394 334.973 65.5236 334.019C58.9035 332.733 53.3108 335.471 52.0496 341.371C50.6776 347.819 49.9885 354.421 49.1825 360.98C45.3433 392.093 41.5719 423.212 37.7696 454.332C36.9575 460.97 39.0862 464.834 44.0944 465.72C51.1513 466.969 56.8116 463.616 57.9314 457.076C59.0142 450.763 59.611 444.371 60.417 438.009C60.8292 434.73 61.1245 431.432 61.7029 428.183C61.8444 427.384 62.8965 426.141 63.5425 426.135C73.5464 426.005 83.5566 426.042 93.9666 426.042C92.9022 435.24 92.127 444.192 90.7489 453.046C89.8137 459.044 88.7678 465.209 86.4975 470.777C78.8376 489.548 61.6352 500.285 41.1842 499.688C26.7259 499.269 14.6239 493.96 6.238 481.802C0.165474 472.998 -0.708183 462.92 0.516166 452.646C4.59528 418.432 8.82205 384.236 12.9811 350.034C14.6731 336.111 19.0598 323.375 30.0482 313.956C44.1498 301.866 60.5093 297.276 78.7453 301.202C94.2558 304.543 104.481 318.343 104.254 335.791C104.137 344.669 102.636 353.529 101.706 362.395C101.331 365.957 100.796 369.507 100.322 373.149H100.316Z" fill="black"/>
<path d="M342.799 304.702C336.283 357.22 329.762 409.763 323.191 462.717H362.376C361.09 473.14 359.897 483.162 358.537 493.16C358.432 493.935 357.109 495.135 356.353 495.135C331.896 495.227 307.44 495.19 282.984 495.172C282.799 495.172 282.615 495.049 282.055 494.846C282.652 489.813 283.242 484.694 283.876 479.575C287.795 448.08 291.727 416.58 295.646 385.085C298.888 359.041 302.118 332.992 305.336 306.942C305.521 305.447 305.638 304.241 307.68 304.253C319.007 304.327 330.334 304.309 341.66 304.333C341.937 304.333 342.214 304.499 342.811 304.696L342.799 304.702Z" fill="black"/>
<path d="M256.227 304.296C249.767 357.319 243.368 409.855 236.926 462.723H275.373C274.672 468.673 274.014 474.296 273.337 479.92C272.832 484.097 272.174 488.256 271.829 492.44C271.651 494.6 270.907 495.301 268.71 495.295C246.463 495.227 224.209 495.264 201.962 495.276C200.276 495.276 198.59 495.276 196.474 495.276C197.163 489.432 197.79 483.913 198.467 478.4C202.368 446.499 206.281 414.599 210.175 382.692C213.258 357.436 216.328 332.18 219.398 306.917C219.558 305.613 219.496 304.278 221.453 304.284C232.866 304.315 244.279 304.303 256.233 304.303L256.227 304.296Z" fill="black"/>
<path d="M475.632 199.335C464.022 199.175 452.867 197.089 443.368 190.044C428.799 179.24 423.237 164.13 425.107 146.571C427.095 127.935 429.636 109.33 432.804 90.8597C437.554 63.1242 459.1 38.5695 494.378 37.6835C502.008 37.4928 509.538 38.1081 516.854 40.3968C536.123 46.4263 548.262 63.0996 548.053 84.4918C547.967 93.2468 546.386 102.008 545.186 110.726C543.322 124.219 541.925 137.834 539.039 151.117C533.152 178.256 509.877 197.366 482.073 198.935C479.926 199.058 477.779 199.199 475.632 199.335ZM498.021 55.2982C471.829 55.2736 454.922 69.2951 451.668 90.2321C448.911 107.951 446.586 125.738 444.235 143.519C441.387 165.108 455.55 181.462 477.207 181.818C500.882 182.206 517.752 168.068 521.314 144.633C523.818 128.119 526.335 111.594 528.371 95.0188C529.731 83.9627 527.787 73.4296 519.794 64.9761C512.602 57.3654 503.177 55.3535 498.021 55.2982Z" fill="black"/>
<path d="M403.881 42.0518H423.279C422.406 48.7949 421.606 55.3658 420.689 61.9182C417.539 84.3503 414.334 106.776 411.165 129.202C407.757 153.357 404.397 177.524 400.977 201.679C399.709 210.606 398.657 219.582 396.928 228.424C391.846 254.412 374.01 274.235 345.106 277.564C340.036 278.148 334.886 278.05 329.774 278.228C329.091 278.253 328.395 278.056 327.491 277.933C328.352 271.626 329.195 265.474 330.1 258.903C334.21 258.903 338.123 259.266 341.943 258.842C358.063 257.033 368.621 247.97 374.859 233.272C378.932 223.68 380.021 213.479 381.455 203.346C385.565 174.22 389.637 145.088 393.674 115.95C396.941 92.3916 400.134 68.8275 403.364 45.2695C403.499 44.2667 403.69 43.2761 403.887 42.0641L403.881 42.0518Z" fill="black"/>
<path d="M192.327 0.239195C188.199 5.30271 184.427 9.954 180.631 14.5807C153.222 47.9888 125.806 81.3969 98.3905 114.805C94.6867 119.321 91.0875 123.923 87.2299 128.304C85.0765 130.746 84.1967 133.447 83.7722 136.591C81.1881 155.572 78.4687 174.534 75.7677 193.742H56.4673C56.9411 189.952 57.3656 186.23 57.8762 182.52C60.3188 164.653 62.8229 146.798 65.1977 128.925C65.6038 125.892 66.5267 123.332 68.5139 120.914C86.1409 99.473 103.682 77.9577 121.222 56.4485C135.841 38.5201 150.447 20.5855 164.973 2.5833C166.468 0.731394 167.988 -0.0499737 170.381 0.0177039C176.527 0.183822 182.68 0.066923 188.826 0.0792281C189.798 0.0792281 190.777 0.171518 192.339 0.245348L192.327 0.239195Z" fill="black"/>
<path d="M380.433 42.0641H399.703C399.137 46.4878 398.632 50.7207 398.042 54.9413C391.588 101.227 385.164 147.518 378.618 193.791C377.129 204.33 375.85 214.968 373.296 225.267C369.968 238.698 362.265 248.955 348.299 253.224C342.638 254.953 336.867 255.199 330.702 254.615C331.558 248.259 332.388 242.095 333.25 235.677C334.265 235.677 335.151 235.653 336.031 235.677C345.345 235.948 354.279 228.67 355.583 219.466C360.382 185.473 365.107 151.468 369.832 117.463C373.247 92.8962 376.606 68.3292 380.003 43.7622C380.07 43.2639 380.249 42.7778 380.433 42.058V42.0641Z" fill="black"/>
<path d="M227.925 176.139C227.125 181.615 226.338 187.368 225.372 193.09C225.273 193.68 224.197 194.468 223.508 194.548C213.319 195.686 203.198 195.378 193.477 191.804C177.53 185.94 169.052 173.955 166.098 157.602C164.782 150.317 165.723 143.125 166.763 135.896C168.996 120.379 170.768 104.795 173.266 89.3276C177.671 62.0781 198.436 43.3376 226.239 41.3564C232.81 40.8889 239.449 41.4118 246.407 41.4857C245.583 47.9889 244.869 53.6246 244.149 59.2972C240.107 58.8665 236.28 58.1282 232.447 58.1097C210.821 57.9867 193.742 72.9988 190.881 94.348C188.752 110.191 186.894 126.083 184.199 141.827C180.846 161.41 194.351 175.826 213.356 177.112C217.983 177.425 222.689 176.527 227.925 176.146V176.139Z" fill="black"/>
<path d="M59.7463 0.2146H79.3236C70.3348 64.8036 61.3767 129.177 52.3941 193.754H32.9644C41.904 129.159 50.8129 64.7729 59.7463 0.2146Z" fill="black"/>
<path d="M161.878 0.0671822C130.254 38.7111 99.2269 76.629 68.1998 114.547C67.966 114.448 67.726 114.35 67.4922 114.252C68.1321 109.348 68.7412 104.438 69.418 99.5348C72.1128 79.9452 74.826 60.3556 77.5393 40.7722C79.2804 28.1964 81.0585 15.6269 82.732 3.03884C83.0273 0.811637 83.7964 -0.080477 86.2082 0.00565808C91.6101 0.208691 97.0304 0.0671822 102.801 0.0671822C100.513 16.5128 98.2794 32.5955 96.0399 48.6782C96.2244 48.7889 96.4029 48.8996 96.5874 49.0042C99.5468 45.4419 102.525 41.8981 105.459 38.3173C115.248 26.3507 125.043 14.3964 134.77 2.38053C136.099 0.737807 137.477 -0.0312604 139.667 0.0118072C146.792 0.159467 153.929 0.0671822 161.878 0.0671822Z" fill="black"/>
<path d="M328.131 41.9779C327.177 49.041 326.322 55.6303 325.399 62.2073C321.578 89.4999 317.641 116.774 313.931 144.079C311.808 159.725 321.529 172.682 337.649 176.336C344.306 177.844 350.852 177.456 357.891 175.383C357.226 180.446 356.66 185.159 355.977 189.86C355.171 195.446 355.897 194.4 350.68 194.806C338.19 195.784 325.971 194.683 315.137 187.768C301.417 179.013 295.566 165.662 295.516 149.924C295.492 141.796 297.061 133.638 298.18 125.529C301.275 102.998 304.517 80.4926 307.686 57.9683C308.326 53.4031 308.824 48.8195 309.612 44.2851C309.759 43.4237 310.941 42.1133 311.685 42.0825C316.989 41.8918 322.304 41.9779 328.125 41.9779H328.131Z" fill="black"/>
<path d="M253.046 193.945C260.047 143.162 266.987 92.8407 273.964 42.2732H293.363C292.545 48.9487 291.825 55.5319 290.914 62.0904C287.746 84.8178 284.497 107.539 281.292 130.26C278.388 150.853 275.515 171.451 272.543 192.031C272.438 192.739 271.405 193.84 270.783 193.859C265.062 194 259.34 193.945 253.052 193.945H253.046Z" fill="black"/>
<path d="M229.562 193.939C236.582 143.064 243.522 92.7547 250.487 42.2426H269.836C269.338 46.6108 268.938 50.9361 268.335 55.2367C262.478 96.9261 256.584 138.609 250.708 180.293C250.179 184.046 249.798 187.823 249.152 191.552C249.004 192.419 248.063 193.81 247.447 193.828C241.633 194 235.813 193.933 229.556 193.933L229.562 193.939Z" fill="black"/>
<path d="M361.151 151.726C360.321 157.928 359.583 163.699 358.721 169.446C358.623 170.098 357.946 170.947 357.331 171.193C344.004 176.49 322.557 171.451 318.718 153.172C317.936 149.45 317.967 145.377 318.49 141.587C322.372 113.261 326.476 84.9594 330.494 56.6517C331.17 51.8896 331.773 47.1214 332.432 42.1871H350.655C350.114 46.4939 349.652 50.6345 349.068 54.7506C345.007 83.3659 340.928 111.975 336.831 140.59C335.219 151.837 344.478 159.146 355.085 154.883C357.035 154.101 358.838 152.951 361.151 151.739V151.726Z" fill="black"/>
<path d="M240.741 83.8457C230.263 75.7736 215.14 83.7165 212.975 97.332C210.661 111.895 208.662 126.52 206.884 141.162C205.518 152.391 214.968 159.171 225.396 154.735C227.162 153.984 228.823 152.981 231.112 151.788C230.725 155.024 230.392 157.885 230.029 160.734C229.796 162.561 229.506 164.388 229.248 166.209C228.534 171.224 228.571 171.402 223.729 172.331C211.855 174.614 201.205 172.356 193.17 162.709C188.795 157.454 187.226 151.025 188.118 144.233C190.413 126.766 192.733 109.299 195.305 91.8686C197.753 75.2506 215.097 61.5859 232.201 62.558C235.259 62.7303 238.317 63.1425 241.319 63.7208C242.064 63.8623 243.196 65.1667 243.122 65.825C242.476 71.7129 241.596 77.5701 240.735 83.8395L240.741 83.8457Z" fill="black"/>
<path d="M119.21 95.8002C134.536 128.71 149.603 161.066 164.911 193.933C157.823 193.933 151.301 193.994 144.792 193.847C144.091 193.828 143.156 192.733 142.774 191.927C130.623 166.074 118.515 140.203 106.474 114.295C106.093 113.47 106.105 111.951 106.622 111.292C110.59 106.216 114.731 101.27 119.21 95.8002Z" fill="black"/>
<path d="M138.769 193.982C131.731 193.982 125.295 194.056 118.866 193.89C118.084 193.871 117.026 192.708 116.62 191.835C107.656 172.743 98.7471 153.621 89.9183 134.469C89.543 133.65 89.5676 132.149 90.0844 131.491C94.0343 126.403 98.1504 121.45 102.636 115.937C114.738 142.079 126.649 167.803 138.769 193.988V193.982Z" fill="black"/>
<path d="M160.174 243.165C160.223 252.843 152.619 260.472 143.894 259.506C139.323 259.001 136.198 256.097 135.373 251.588C133.718 242.562 139.212 233.881 147.451 232.49C154.858 231.241 160.137 235.671 160.174 243.171V243.165Z" fill="black"/>
<path d="M195.569 243.423C196.117 239.75 196.523 236.822 197.009 233.912C197.101 233.364 197.538 232.404 197.772 232.416C200.467 232.583 203.284 232.503 205.764 233.37C206.748 233.715 207.474 236.256 207.437 237.775C207.37 240.482 205.518 242.34 202.897 242.876C200.657 243.331 198.307 243.245 195.569 243.429V243.423Z" fill="black"/>
<path d="M92.4902 243.694C92.8839 241.122 93.0193 238.852 93.6284 236.717C94.0898 235.105 92.9762 232.33 95.954 232.201C98.7288 232.078 101.86 231.481 103.632 234.607C104.807 236.68 104.002 240.163 102.107 241.916C99.381 244.439 96.1017 243.873 92.4902 243.694Z" fill="black"/>
<path d="M524.888 92.6253C524.039 98.8455 522.962 107.176 521.763 115.488C520.255 125.935 518.742 136.376 517.074 146.798C514.484 162.985 500.186 176.176 483.814 177.296C479.255 177.61 474.511 177.727 470.082 176.804C455.574 173.801 446.45 160.74 448.277 145.063C450.492 126.033 453.137 107.047 456.115 88.1217C458.269 74.4323 472.641 61.6966 486.779 59.8017C493.504 58.9034 500.106 59.2848 506.511 61.4382C518.237 65.3758 524.863 75.9951 524.888 92.6191V92.6253ZM480.436 158.876C488.865 158.839 497.706 151.296 499.023 142.454C501.521 125.732 503.828 108.985 505.994 92.2192C507.003 84.4302 500.936 77.9577 493.067 77.9023C484.657 77.847 475.637 85.3776 474.314 94.1327C471.804 110.744 469.479 127.387 467.325 144.054C466.273 152.194 472.463 158.912 480.436 158.882V158.876Z" fill="black"/>
</svg>
