<svg width="39" height="38" viewBox="0 0 39 38" fill="none" xmlns="http://www.w3.org/2000/svg">
<rect x="0.818359" width="38" height="38" rx="11" fill="black" fill-opacity="0.1"/>
<path d="M13.2008 32.0624H26.8692C30.1275 32.0624 32.7745 29.4111 32.7745 26.157L32.7732 12.3868C32.7732 9.12849 30.1218 6.48145 26.8678 6.48145H13.2008C9.94246 6.48145 7.29541 9.13278 7.29541 12.3868V26.1585C7.29541 29.4126 9.94671 32.0624 13.2008 32.0624ZM9.43877 12.3868C9.43877 10.3118 11.1245 8.62483 13.2008 8.62483H26.8692C28.9442 8.62483 30.6312 10.3105 30.6312 12.3868V26.1585C30.6312 28.2335 28.9455 29.9205 26.8692 29.9205L13.2008 29.9191C11.1258 29.9191 9.43877 28.2334 9.43877 26.1571V12.3868Z" fill="black"/>
<path d="M20.035 25.5358C23.4901 25.5358 26.3005 22.724 26.3005 19.2704C26.3005 15.8153 23.4901 13.0049 20.035 13.0049C16.5799 13.0049 13.7695 15.8153 13.7695 19.2704C13.7695 22.7254 16.5799 25.5358 20.035 25.5358ZM20.035 15.1483C22.3068 15.1483 24.1571 16.9986 24.1571 19.2704C24.1571 21.5421 22.3068 23.3925 20.035 23.3925C17.7633 23.3925 15.9129 21.5421 15.9129 19.2704C15.9129 16.9986 17.7633 15.1483 20.035 15.1483Z" fill="black"/>
<path d="M27.4151 10.7832C29.5236 11.6567 28.2133 14.8174 26.1048 13.9452C23.9977 13.0717 25.3066 9.90958 27.4151 10.7832Z" fill="black"/>
</svg>
