<svg width="361" height="198" viewBox="0 0 361 198" fill="none" xmlns="http://www.w3.org/2000/svg">
<g clip-path="url(#clip0_2072_93)">
<path d="M274.46 87.9246H294.253C294.118 89.1809 294.004 90.3963 293.857 91.6069C293.072 98.0165 292.282 104.424 291.49 110.831C290.722 117.041 289.944 123.248 289.181 129.457C288.495 135.03 287.833 140.605 287.147 146.178C286.383 152.388 285.606 158.595 284.835 164.804C284.499 167.51 284.263 170.232 283.811 172.921C282.115 183.025 276.489 190.108 267.052 194.091C261.035 196.631 254.817 197.038 248.544 195.078C246.832 194.542 245.148 193.812 243.578 192.939C237.774 189.71 234.783 184.578 233.793 178.149C233.351 175.287 233.819 172.468 234.162 169.644C234.764 164.667 235.385 159.694 235.996 154.717C236.592 149.86 237.189 145.004 237.786 140.15C238.394 135.213 239.003 130.279 239.612 125.343C240.305 119.732 240.998 114.12 241.689 108.506C242.286 103.65 242.878 98.793 243.472 93.9387C243.716 91.9565 243.967 89.9743 244.221 87.939H264.81C264.666 89.2436 264.54 90.5 264.385 91.7516C263.777 96.6878 263.161 101.622 262.545 106.555C261.856 112.087 261.163 117.617 260.475 123.149C259.876 127.964 259.284 132.78 258.685 137.596C258.078 142.491 257.467 147.386 256.861 152.282C256.264 157.097 255.665 161.913 255.071 166.729C254.81 168.839 254.571 170.951 254.301 173.059C253.88 176.317 256.161 177.517 258.32 177.568C261.521 177.643 263.46 176.054 263.919 172.822C264.315 170.044 264.61 167.252 264.955 164.464C265.569 159.53 266.19 154.597 266.801 149.66C267.402 144.806 267.992 139.947 268.596 135.093C269.277 129.599 269.965 124.108 270.649 118.618C271.168 114.439 271.685 110.259 272.202 106.08C272.811 101.185 273.419 96.2899 274.028 91.3947C274.166 90.283 274.303 89.1689 274.458 87.927L274.46 87.9246Z" fill="black"/>
<path d="M293.656 193.126C292.933 192.494 293.183 190.324 293.183 190.324C293.668 181.056 297.697 154.378 297.697 154.378C296.168 152.955 295.431 152.179 294.697 150.334C294.019 148.36 294.529 143.994 294.529 143.994L294.567 143.552L304.94 145.425C305.642 145.574 306.363 144.968 306.513 144.268C306.662 143.569 306.055 142.848 305.298 142.827L294.701 141.47L294.985 138.688L305.582 140.046C306.283 140.195 307.005 139.589 307.025 138.834L307.081 138.705C307.23 138.005 306.623 137.284 305.866 137.264L295.287 136.219L295.644 133.622L306.335 134.409C307.092 134.429 307.629 133.897 307.778 133.197L307.76 132.883C307.781 132.128 307.302 131.463 306.545 131.442C302.631 131.284 298.716 131.125 295.946 131.153L296.286 128.243L307.143 128.643C307.9 128.664 308.437 128.131 308.531 127.56L308.642 127.302C308.663 126.547 308.055 125.826 307.298 125.805C303.642 125.758 299.93 125.839 296.661 125.959L297.001 123.048L308.025 123.062C308.653 123.027 309.319 122.55 309.284 121.923L309.492 120.025C304.967 120.215 300.313 120.349 297.173 120.524L297.531 117.926C299.414 117.821 304.051 117.374 308.76 117.112C309.388 117.077 309.925 116.544 310.019 115.973L310.001 115.659C310.077 114.775 309.414 114.183 308.657 114.163C304.575 114.39 300.567 114.803 297.888 115.329L298.245 112.732C299.243 112.55 304.064 112.03 309.642 111.53C310.27 111.495 310.807 110.962 310.901 110.391L310.957 110.263C311.033 109.378 310.296 108.602 309.483 108.71C306.232 109.143 302.482 109.667 298.676 110.319L299.016 107.408C299.016 107.408 304.004 106.501 310.507 105.636C311.135 105.601 311.671 105.068 311.636 104.441C311.712 103.557 310.976 102.781 310.107 103.018C306.025 103.245 302.108 104.155 298.948 105.086C298.948 105.086 299.138 102.875 300.698 99.2677C302.388 95.716 305.956 94.1969 305.956 94.1969C311.633 90.9885 317.102 89.6777 320.65 88.914C323.2 88.3318 328.849 89.0854 333.113 89.8535C334.404 90.4101 335.971 91.3914 336.503 92.9962C337.474 95.708 338.581 96.3378 338.581 96.3378C338.581 96.3378 339.687 96.9676 339.599 95.4009C339.51 93.8343 338.574 91.7491 336.969 91.21L333.999 89.9298C335.272 90.1731 336.361 90.4895 337.007 90.7678C338.095 91.0843 339.258 91.5853 340.161 91.9749C340.787 93.0087 341.835 94.8362 342.586 96.9945C343.594 100.333 344.67 98.1985 344.285 96.9626C344.103 95.967 343.83 94.4735 342.098 92.8098C343.205 93.4396 344.182 94.0138 345.159 94.5879C345.6 95.6949 346.316 97.2266 346.61 97.9646C347.123 99.256 348.855 100.92 348.177 98.9458C347.792 97.71 347.296 96.7319 346.744 95.8825C348.273 97.306 349.415 98.5625 350.463 100.39C351.714 102.458 351.477 108.317 351.477 108.317L351.513 108.944C350.72 108.296 348.748 106.835 344.818 105.294C344.725 105.865 344.666 107.062 344.496 108.518C346.747 109.335 349.071 110.337 351.211 111.412L350.76 114.581C349.967 113.933 348.013 112.785 344.212 111.3C344.081 112.313 344.022 113.511 343.835 114.653C346.085 115.47 348.336 116.287 350.217 117.251L349.878 120.162C348.9 119.588 346.705 118.641 343.495 117.563C343.363 118.576 343.305 119.774 343.229 120.658C345.535 121.347 347.713 121.98 349.465 122.888L349.125 125.799C348.092 125.353 345.97 124.592 343.018 123.625C342.807 126.591 344.929 127.353 344.929 127.353C346.276 127.781 347.494 128.153 348.656 128.654L348.243 131.38C347.154 131.064 345.678 130.58 343.759 130.058C341.746 130.108 341.371 132.392 341.371 132.392C343.475 132.84 345.708 133.344 347.885 133.977L347.546 136.888C346.401 136.7 343.91 136.085 340.92 135.56L340.58 138.471C342.869 138.846 345.102 139.35 347.021 139.872L346.849 142.396L340.24 141.382L339.9 144.292L346.435 145.122L345.967 147.977L339.432 147.147L339.036 150.187C341.639 150.545 344.113 150.847 345.571 151.017C345.477 151.588 345.29 152.73 344.748 155.4C343.833 159.286 341.078 160.697 341.078 160.697C340.468 161.045 340.042 161.321 339.488 161.54C339.672 161.467 341.486 160.109 342.43 158.987C343.375 157.866 344.266 155.804 344.266 155.804C344.434 155.418 344.416 155.105 344.158 154.993C343.899 154.882 343.659 155.084 343.492 155.47L343.38 155.728C342.785 157.459 342.192 158.12 341.858 158.893C341.395 159.611 339.118 161.686 338.933 161.76C332.795 164.617 327.108 164.305 326.665 164.267C326.979 164.249 331.762 164.171 333.132 162.775C334.631 161.434 334.593 161.876 335.89 160.295C337.186 158.714 337.84 155.786 337.84 155.786C338.063 155.27 337.899 154.588 337.253 154.31C336.736 154.087 336.053 154.251 335.774 154.895C335.774 154.895 333.489 160.177 331.934 161.647C330.306 162.932 326.721 164.138 326.665 164.267L317.861 163.644C317.067 166.88 312.535 190.181 312.183 191.698C311.473 194.755 310.605 194.992 309.642 195.8C308.68 196.608 306.916 196.933 306.916 196.933C306.916 196.933 303.455 197.566 298.963 196.76C294.47 195.955 294.002 193.459 293.637 193.133L293.656 193.126ZM334.092 163.035C334.276 162.962 336.938 162.122 337.419 161.718C338.029 161.37 338.769 161.077 339.64 159.771C340.567 158.337 341.142 157.362 341.681 155.76C341.848 155.373 341.628 154.82 341.241 154.653C340.853 154.486 340.299 154.706 340.132 155.092C340.132 155.092 338.701 158.755 338.46 158.957C338.275 159.03 337.718 160.319 337.052 160.796C336.644 161.384 335.201 162.596 334.092 163.035ZM333.97 93.8918C333.97 93.8918 333.811 91.0718 331.376 90.3275C328.94 89.5833 327.352 89.3575 325.137 89.1667C325.137 89.1667 328.717 90.0986 330.023 92.0374C331.2 93.9205 331.588 94.0875 331.588 94.0875C331.588 94.0875 334.094 96.0851 333.97 93.8918ZM320.72 163.844C324.893 164.114 328 162.244 329.516 161.216C331.033 160.189 333.039 155.55 333.039 155.55C333.318 154.906 333.024 154.168 332.379 153.89C331.733 153.612 330.994 153.904 330.715 154.549L330.604 154.806C330.381 155.322 329.897 156.794 329.155 158.156C328.116 159.848 326.729 160.932 325.083 161.903C323.308 162.82 319.816 163.454 319.816 163.454C319.816 163.454 316.603 163.445 320.72 163.844ZM315.479 162.502C316.051 162.596 317.861 162.306 317.861 162.306C317.861 162.306 321.186 162.058 323.554 160.48C325.977 158.773 327.408 155.11 327.408 155.11C327.743 154.337 327.449 153.599 326.674 153.265C325.899 152.931 325.16 153.224 324.826 153.997C324.826 153.997 323.341 156.72 322.749 157.382C322.156 158.043 320.619 159.826 320.065 160.046C319.51 160.265 316.72 161.05 314.798 161.597C312.876 162.144 314.906 162.408 315.479 162.502ZM309.946 144.831C309.797 145.531 310.275 146.196 310.977 146.345L319.117 147.715C319.117 147.715 321.664 148.201 323.307 148.298C324.064 148.319 330.027 149.055 335.676 149.809C335.826 149.109 335.957 148.095 336.072 146.769L322.817 145.182L320.214 144.824L311.205 143.692C310.503 143.543 309.782 144.149 309.632 144.849L309.946 144.831ZM311.859 140.764L336.725 143.841C336.857 142.828 336.989 141.814 337.121 140.801L324.218 138.755L312.181 137.54C311.424 137.52 310.758 137.997 310.737 138.752L310.755 139.066C310.494 140.023 311.101 140.744 311.859 140.764ZM311.434 133.244C311.414 134 311.892 134.665 312.649 134.685L319.167 135.202L322.97 135.618C322.97 135.618 329.948 136.486 337.516 137.762C337.648 136.749 337.78 135.735 337.912 134.722C334.22 134.048 330.399 133.318 327.926 133.016C321.963 132.28 320.449 132.239 320.449 132.239C320.449 132.239 317.218 131.916 312.916 131.59C312.159 131.569 311.622 132.102 311.472 132.802L311.434 133.244ZM312.114 127.423C312.093 128.178 312.572 128.843 313.458 128.919L321.029 129.126C321.029 129.126 324.131 129.393 326.29 129.713C327.564 129.956 332.511 130.56 338.436 131.738C338.72 128.956 335.583 128.063 335.196 127.896C333.221 127.503 331.061 127.183 329.03 126.919C329.03 126.919 323.326 126.295 320.482 126.139C319.467 126.007 316.882 125.963 313.54 125.897C312.782 125.877 312.246 126.41 312.152 126.981L312.114 127.423ZM314.193 122.969L321.691 122.991C321.691 122.991 324.349 123.22 326.565 123.411C327.709 123.598 331.715 124.255 336.366 125.19C339.156 124.406 339.253 122.766 339.253 122.766L339.235 122.453C336.172 121.744 332.536 120.94 328.289 120.486C328.289 120.486 324.985 119.979 322.142 119.823C321.071 119.82 318.042 119.737 314.146 119.892C313.518 119.927 312.852 120.404 312.887 121.03L312.849 121.473C312.644 122.301 313.251 123.022 314.193 122.969ZM314.911 116.706C317.866 116.604 320.322 116.593 321.78 116.763C321.78 116.763 326.563 116.684 329.055 117.3C329.055 117.3 334.205 118.144 339.575 119.542L340.026 116.374C336.502 115.313 332.164 114.36 326.7 113.534C326.7 113.534 321.216 113.462 314.807 113.757C314.179 113.792 313.643 114.325 313.549 114.896L313.566 115.209C313.49 116.093 314.098 116.814 314.911 116.706ZM314.302 109.259C314.226 110.143 314.889 110.735 315.646 110.755C318.657 110.525 321.611 110.423 324.068 110.412C324.068 110.412 326.395 110.345 329.127 110.758C330.843 111.039 335.494 111.974 340.495 113.519L341.002 110.221C337.607 109.216 333.325 108.135 327.603 107.197C327.603 107.197 323.06 107.073 315.543 107.807C314.915 107.842 314.378 108.375 314.284 108.946L314.302 109.259ZM316.437 104.676C319.632 104.372 322.957 104.124 326.041 104.078C326.041 104.078 326.854 103.97 328.7 104.307C329.844 104.494 335.252 105.45 341.286 107.44L341.737 104.271C338.268 103.082 333.544 101.962 327.637 101.097C327.637 101.097 322.484 101.322 316.222 101.985C315.594 102.02 315.057 102.553 315.093 103.18L315.037 103.309C314.887 104.008 315.624 104.785 316.437 104.676Z" fill="black"/>
<path d="M101.86 87.9292C101.901 88.5562 101.966 89.1494 101.976 89.745C102.089 95.9232 102.186 102.104 102.307 108.282C102.457 115.943 102.626 123.607 102.788 131.268C102.947 138.891 103.109 146.513 103.271 154.133C103.432 161.795 103.585 169.458 103.756 177.119C103.874 182.333 104.019 187.549 104.15 192.763C104.16 193.158 104.15 193.556 104.15 193.925C103.263 194.229 85.4127 194.332 83.5142 194.05C83.6204 191.277 83.7315 188.487 83.833 185.697C83.9345 182.895 84.0287 180.09 84.1277 177.305C83.2146 177.035 73.4874 176.977 71.9559 177.235C71.3376 179.994 70.712 182.803 70.0791 185.61C69.4438 188.422 68.8013 191.231 68.1491 194.106H49.8106C49.7912 193.185 77.3401 90.4829 78.2894 87.934H101.86V87.9292ZM84.4659 160.381C84.9852 146.988 85.4997 133.667 86.0166 120.346C85.9417 120.337 85.8669 120.325 85.792 120.315C82.647 133.634 79.502 146.952 76.3328 160.381H84.4683H84.4659Z" fill="black"/>
<path d="M55.9941 126.399H38.1435C38.3995 124.34 38.6411 122.36 38.8923 120.38C39.3246 116.958 39.7667 113.539 40.1942 110.117C40.3561 108.815 40.245 107.556 39.4986 106.415C38.9478 105.574 38.2208 104.981 37.2352 104.735C35.6796 104.344 34.1168 104.325 32.5975 104.841C30.5563 105.535 29.3607 107.076 28.8969 109.102C28.5321 110.698 28.3896 112.348 28.1843 113.978C27.3051 120.981 26.4355 127.983 25.5683 134.989C24.805 141.157 24.0586 147.328 23.2977 153.497C22.5441 159.586 21.7784 165.675 21.0272 171.763C20.9644 172.28 20.916 172.805 20.9475 173.321C21.0875 175.612 22.5997 177.23 24.8871 177.467C25.7978 177.561 26.7423 177.558 27.6505 177.44C30.1312 177.119 32.1119 174.942 32.4839 172.142C33.0008 168.248 33.4695 164.343 33.9574 160.444C34.1313 159.05 34.2956 157.656 34.4767 156.265C34.513 155.995 34.612 155.73 34.6869 155.443H52.4964C52.3128 157.073 52.1462 158.623 51.965 160.169C51.5109 164.032 51.0737 167.898 50.5882 171.759C49.7089 178.762 47.0253 184.879 41.658 189.656C37.5396 193.322 32.6941 195.384 27.2399 196.044C21.6649 196.72 16.3048 195.909 11.3289 193.291C4.6017 189.751 0.881818 184.12 0.108855 176.555C-0.176175 173.775 0.145088 171.03 0.485675 168.281C1.09438 163.386 1.70551 158.493 2.31663 153.598C3.00988 148.027 3.70313 142.455 4.39155 136.884C4.98818 132.068 5.57274 127.253 6.18144 122.437C6.72493 118.142 7.06069 113.802 7.89887 109.562C9.97621 99.0725 16.1406 91.8526 26.1142 87.9195C30.9114 86.0265 35.8898 85.4574 41.03 85.9469C50.1437 86.815 56.9917 93.4393 58.1149 102.485C58.5545 106.03 58.255 109.529 57.7936 113.035C57.2308 117.33 56.6801 121.624 56.1197 125.919C56.1052 126.035 56.0593 126.148 55.9941 126.397V126.399Z" fill="black"/>
<path d="M179.61 175.986H201.205C200.456 182.084 199.724 188.036 198.997 193.956C198.057 194.231 158.339 194.286 156.907 194.007C161.269 158.66 165.632 123.305 169.996 87.9387H190.477C186.854 117.293 183.243 146.561 179.61 175.983V175.986Z" fill="black"/>
<path d="M151.172 194.009C149.926 194.265 110.068 194.236 109.092 193.985C113.452 158.662 117.812 123.332 122.179 87.9436H142.66C139.042 117.267 135.428 146.535 131.798 175.955H153.392C152.639 182.087 151.904 188.067 151.172 194.009Z" fill="black"/>
<path d="M273.552 15.6581C278.1 15.6653 281.651 16.191 285.014 17.7006C289.893 19.8926 292.994 23.64 294.63 28.6607C295.864 32.4515 295.828 36.3147 295.275 40.2043C294.734 44.012 294.18 47.8197 293.639 51.6298C293.221 54.567 292.934 57.5283 292.381 60.4389C290.352 71.1216 284.27 78.2981 273.702 81.3945C268.257 82.9908 262.743 83.015 257.3 81.3366C250.527 79.2483 246.467 74.5869 244.764 67.8011C244.01 64.794 244.124 61.7772 244.59 58.7292C245.274 54.2535 245.807 49.7561 246.445 45.2708C246.88 42.2155 247.134 39.1071 247.899 36.1338C250.189 27.2379 255.409 20.727 264.165 17.3775C267.46 16.1187 270.919 15.6243 273.554 15.6557L273.552 15.6581ZM251.943 61.3745C252.001 63.376 252.37 65.3004 253.109 67.1427C254.665 71.0179 257.366 73.6923 261.429 74.9004C263.861 75.6238 266.339 75.6648 268.837 75.4092C273.057 74.9752 276.762 73.4149 279.738 70.3331C282.755 67.2078 284.248 63.4026 284.818 59.1439C285.615 53.1828 286.489 47.2313 287.388 41.2847C287.811 38.4801 287.939 35.6997 287.231 32.9266C286.221 28.9814 284.059 25.9406 280.245 24.255C276.47 22.5862 272.508 22.3837 268.545 23.2373C262.397 24.5636 258.404 28.4919 256.006 34.166C255.18 36.1169 255.112 38.2318 254.8 40.2863C254.044 45.2805 253.363 50.2866 252.675 55.2928C252.397 57.3185 252.184 59.3513 251.94 61.3818L251.943 61.3745Z" fill="black"/>
<path d="M243.384 17.5532C243.119 19.4728 242.875 21.2524 242.623 23.0321C242.005 27.4378 241.389 31.8435 240.763 36.2493C240.099 40.9323 239.418 45.613 238.756 50.2984C237.887 56.4525 237.031 62.6065 236.159 68.7605C235.502 73.4026 234.826 78.0447 234.159 82.6867C233.628 86.3787 233.215 90.0899 232.543 93.7553C231.13 101.489 227.49 107.824 220.495 111.885C217.357 113.708 213.915 114.667 210.328 115.044C208.495 115.237 206.637 115.222 204.792 115.285C204.403 115.299 204.009 115.241 203.485 115.208C203.845 112.586 204.193 110.064 204.543 107.51C205.212 107.51 205.768 107.498 206.321 107.51C209.838 107.592 213.212 107.033 216.285 105.215C219.872 103.092 222.087 99.8708 223.579 96.0775C224.705 93.2176 225.234 90.2225 225.659 87.201C226.435 81.6811 227.224 76.1637 227.997 70.6463C228.676 65.8041 229.333 60.9571 230.014 56.1149C230.865 50.079 231.741 44.0479 232.587 38.012C233.442 31.899 234.273 25.7811 235.118 19.6657C235.162 19.3474 235.229 19.0339 235.28 18.7156C235.483 17.4737 235.481 17.4616 236.684 17.4544C238.534 17.4447 240.384 17.4471 242.234 17.4544C242.548 17.4544 242.865 17.505 243.384 17.5508V17.5532Z" fill="black"/>
<path d="M146.67 0.0219303C145.117 1.89804 143.762 3.53301 142.407 5.16798C131.517 18.3056 120.626 31.4432 109.734 44.5809C107.198 47.641 104.676 50.7132 102.113 53.7516C101.647 54.3039 101.401 54.8874 101.307 55.5747C100.246 63.1587 99.1811 70.7403 98.1158 78.3244C98.0265 78.9562 97.9129 79.5856 97.797 80.2873H89.9731C90.0867 79.2504 90.164 78.2641 90.3041 77.285C91.222 70.7741 92.1543 64.2632 93.0795 57.7522C93.3331 55.9653 93.6133 54.1833 93.8066 52.3916C93.8814 51.7067 94.1616 51.2027 94.5844 50.6915C101.563 42.2369 108.527 33.7727 115.498 25.3133C122.186 17.1939 128.887 9.08419 135.551 0.945519C136.121 0.251019 136.694 -0.0190644 137.585 0.000227217C140.158 0.0581022 142.733 0.0219303 145.308 0.0219303C145.66 0.0219303 146.013 0.0219303 146.668 0.0219303H146.67Z" fill="black"/>
<path d="M225.604 17.4786C228.324 17.4376 230.836 17.4448 233.498 17.4665C233.331 18.7904 233.198 19.931 233.041 21.0668C232.07 28.0528 231.102 35.0412 230.114 42.0248C229.193 48.5333 228.242 55.037 227.324 61.5479C226.401 68.095 225.51 74.647 224.587 81.1965C224.128 84.4496 223.715 87.7147 223.131 90.946C222.51 94.3799 221.249 97.5799 218.988 100.307C216.394 103.437 213.024 105.094 208.99 105.449C207.674 105.564 206.355 105.743 204.886 105.347C205.224 102.871 205.563 100.394 205.918 97.8018C206.374 97.8018 206.763 97.7922 207.15 97.8018C211.041 97.9079 214.966 94.4113 215.357 90.5915C215.848 85.8096 216.684 81.0663 217.353 76.3012C217.971 71.8955 218.558 67.4874 219.174 63.0816C219.836 58.3576 220.524 53.6359 221.186 48.9119C221.809 44.4676 222.408 40.0184 223.034 35.5717C223.703 30.8091 224.389 26.0513 225.068 21.2887C225.242 20.066 225.413 18.8434 225.606 17.4786H225.604Z" fill="black"/>
<path d="M161.38 72.9999C161.305 75.585 160.73 78.0278 160.443 80.5213C158.081 80.7745 155.854 80.9529 153.595 80.7407C151.182 80.5116 148.827 80.1089 146.568 79.1998C141.223 77.0487 137.962 73.0771 136.365 67.6392C135.409 64.3789 135.411 61.0801 135.909 57.7499C136.484 53.906 137.017 50.0573 137.558 46.2086C137.988 43.1533 138.315 40.0811 138.836 37.0403C140.491 27.4137 147.392 19.8393 157.02 17.7727C160.967 16.9263 164.914 16.9456 168.888 17.4038C168.963 17.4134 169.03 17.4689 169.25 17.5726C169.028 19.8417 168.687 22.1471 168.284 24.5634C167.791 24.4693 167.409 24.3873 167.025 24.3246C159.588 23.1334 153.457 25.335 148.887 31.3999C147.056 33.8306 146.315 36.6954 145.914 39.6832C145.088 45.8397 144.179 51.9841 143.312 58.1357C143.008 60.2867 142.795 62.4401 143.404 64.5791C144.452 68.2614 146.844 70.7645 150.298 72.2982C153.61 73.7692 157.042 73.9669 160.552 73.1542C160.781 73.1012 161.015 73.0674 161.383 73.0023L161.38 72.9999Z" fill="black"/>
<path d="M91.367 0.0654297H99.3116C98.4082 6.82475 97.4275 13.5021 96.4831 20.1866C95.541 26.8543 94.6376 33.5292 93.7004 40.1993C92.7584 46.9104 91.7946 53.6191 90.838 60.3278C89.8912 66.9834 88.9443 73.639 87.9926 80.3212H80.1035C83.8451 53.5492 87.6085 26.8567 91.367 0.0654297Z" fill="black"/>
<path d="M101.21 0.0653463H109.15C108.297 6.91871 107.186 13.6756 106.565 20.5627C106.852 20.2468 107.152 19.9454 107.425 19.6174C112.592 13.3669 117.761 7.12127 122.904 0.853893C123.408 0.238971 123.937 -0.00699745 124.737 0.00505984C127.669 0.0508775 130.604 0.02194 133.558 0.02194C133.196 0.897299 95.6397 46.3798 94.5503 47.2311C96.7774 31.4577 98.9876 15.8049 101.21 0.0653463Z" fill="black"/>
<path d="M215.838 73.0216C215.857 73.2458 215.901 73.4026 215.879 73.5521C215.56 75.8502 215.232 78.1483 214.884 80.596C213.181 80.6804 211.504 80.8588 209.833 80.8275C206.768 80.7672 203.753 80.3452 200.886 79.1587C196.016 77.1476 192.825 73.5859 191.13 68.6544C189.987 65.3314 189.758 61.9265 190.265 58.4491C191.077 52.898 191.837 47.3371 192.63 41.7835C193.287 37.1801 193.961 32.5766 194.622 27.9731C195.072 24.8382 195.511 21.7033 195.961 18.5684C196.004 18.2574 196.094 17.9535 196.178 17.5725H203.495C203.335 18.8144 203.202 19.9574 203.041 21.0981C202.043 28.0816 201.033 35.0652 200.038 42.0488C199.224 47.7615 198.4 53.4743 197.63 59.1943C197.164 62.6547 197.654 65.9222 199.961 68.7219C201.927 71.1093 204.49 72.5128 207.468 73.2121C210.019 73.8125 212.565 73.7474 215.104 73.1204C215.323 73.0674 215.553 73.0577 215.833 73.0216H215.838Z" fill="black"/>
<path d="M170.315 80.3137H162.46C165.38 59.3847 168.289 38.5328 171.216 17.5338C173.885 17.4422 176.467 17.4735 179.212 17.517C176.236 38.5183 173.281 59.3678 170.315 80.3113V80.3137Z" fill="black"/>
<path d="M181.045 17.5556H188.9C188.869 18.1296 188.876 18.6336 188.806 19.1279C187.867 25.8342 186.92 32.5404 185.966 39.2443C185.113 45.2368 184.239 51.2268 183.391 57.2193C182.78 61.5454 182.207 65.8764 181.598 70.2002C181.13 73.5328 180.63 76.8606 180.118 80.3645C177.562 80.3717 175.011 80.3741 172.284 80.3572C175.207 59.4017 178.115 38.5498 181.043 17.5532L181.045 17.5556Z" fill="black"/>
<path d="M217.324 63.1924C216.99 65.6159 216.669 67.8731 216.372 70.1326C216.302 70.6631 215.966 70.8609 215.522 71.0152C213.944 71.5674 212.316 71.7748 210.657 71.688C208.08 71.5529 205.65 70.9163 203.563 69.3296C200.456 66.9688 199.094 63.7663 199.529 59.9514C200.046 55.4131 200.811 50.9036 201.456 46.3797C202.13 41.6581 202.787 36.9341 203.456 32.21C204.108 27.6041 204.763 23.0006 205.425 18.3972C205.464 18.1295 205.572 17.8739 205.679 17.5001C208.092 17.4688 210.478 17.4591 212.985 17.5073C212.799 18.9132 212.647 20.1358 212.473 21.3584C211.529 27.9875 210.582 34.6142 209.63 41.2409C208.947 46.0011 208.256 50.7589 207.57 55.5192C207.423 56.5513 207.287 57.5834 207.147 58.6179C206.575 62.8572 210.285 65.9391 214.343 64.5525C215.316 64.2197 216.225 63.7012 217.319 63.1948L217.324 63.1924Z" fill="black"/>
<path d="M168.001 26.7963C167.646 29.3525 167.294 31.8821 166.939 34.431C166.103 34.0717 165.371 33.6376 164.581 33.4399C161.832 32.7551 158.595 34.132 156.813 36.6664C155.895 37.971 155.356 39.4179 155.141 40.9974C154.349 46.7946 153.542 52.5869 152.745 58.3816C152.356 61.2054 153.45 63.3926 155.815 64.432C157.289 65.0782 158.801 64.9938 160.274 64.4175C161.088 64.0992 161.859 63.6675 162.651 63.2865C162.825 64.1281 162.248 68.8787 161.743 70.721C160.409 71.3866 158.948 71.6278 157.46 71.6856C155.008 71.7821 152.656 71.3504 150.479 70.1785C146.557 68.066 144.479 63.8942 145.102 59.4957C146.073 52.6327 147.044 45.7673 147.97 38.8994C148.665 33.7341 151.583 30.2013 156.028 27.7585C159.595 25.798 163.376 25.6509 167.262 26.507C167.487 26.5552 167.697 26.6734 168.006 26.7963H168.001Z" fill="black"/>
<path d="M116.133 39.9726C122.467 53.4792 128.723 66.8242 135.039 80.297H126.45C126.078 79.5422 125.646 78.6958 125.242 77.8398C120.491 67.7599 115.747 57.6776 110.979 47.6049C110.645 46.9032 110.631 46.4185 111.186 45.7915C112.599 44.2023 113.916 42.5312 115.276 40.8962C115.503 40.6237 115.756 40.3729 116.131 39.9702L116.133 39.9726Z" fill="black"/>
<path d="M124.128 80.3113H115.592C115.454 80.0509 115.275 79.7446 115.123 79.4263C111.449 71.6349 107.787 63.8362 104.089 56.0568C103.729 55.3021 103.741 54.786 104.314 54.1301C105.712 52.5313 107.019 50.8505 108.369 49.2083C108.594 48.9358 108.85 48.6923 109.193 48.3281C114.188 59.0278 119.131 69.6117 124.128 80.3137V80.3113Z" fill="black"/>
<path d="M177.46 9.78599H173.008C173.141 8.69119 173.267 7.6422 173.405 6.50641H170.624C170.45 7.55298 170.269 8.64055 170.078 9.78117H165.687C165.967 6.68968 166.547 3.685 166.938 0.574219H171.376C171.264 1.59909 171.158 2.57814 171.04 3.66571H173.798C173.963 2.6963 174.134 1.6859 174.322 0.581453H178.781C178.342 3.64883 177.909 6.6535 177.46 9.7884V9.78599Z" fill="black"/>
<path d="M188.908 3.88033C188.78 4.79669 188.693 5.42608 188.586 6.19051H183.915C183.833 6.65833 183.77 7.00317 183.685 7.48305H189.413C189.297 8.31983 189.202 9.01192 189.096 9.76911H178.845C179.289 6.68003 179.724 3.64401 180.168 0.554932H190.391C190.299 1.26631 190.212 1.94875 190.108 2.76383H184.415C184.345 3.16654 184.297 3.43662 184.217 3.88274H188.908V3.88033Z" fill="black"/>
<path d="M157.834 3.15201H154.583C154.716 2.21637 154.829 1.41335 154.953 0.550049H166.02C165.902 1.40853 165.796 2.18984 165.668 3.11102H162.39C162.045 5.40914 161.721 7.57704 161.387 9.78352H156.948C157.242 7.57704 157.528 5.42602 157.832 3.15201H157.834Z" fill="black"/>
<path d="M335.851 174.455L334.708 174.532V174.39C335.092 174.412 335.474 174.436 335.863 174.46C335.867 174.462 335.851 174.455 335.851 174.455Z" fill="black"/>
<path d="M272.842 24.73C274.835 24.6986 276.777 24.9832 278.634 25.6969C282.787 27.2957 284.9 30.4813 285.685 34.7254C286.154 37.2671 285.77 39.7606 285.415 42.2588C284.874 46.0665 284.304 49.8718 283.746 53.6795C283.41 55.98 283.139 58.2902 282.724 60.5763C281.741 65.9755 278.702 69.8724 273.726 72.1489C270.195 73.7645 266.463 74.0901 262.658 73.1544C258.554 72.144 255.982 69.5228 254.644 65.5873C253.846 63.2458 253.861 60.8753 254.204 58.459C254.946 53.2213 255.632 47.9764 256.351 42.7363C256.586 41.029 256.839 39.3241 257.105 37.624C258.107 31.2554 263.801 25.7018 270.197 24.8722C271.071 24.7589 271.963 24.7734 272.844 24.7275L272.842 24.73ZM267.533 66.0093C267.656 66.0021 267.98 66.0021 268.296 65.9538C271.799 65.4088 274.854 62.3511 275.361 58.8207C276.332 52.0831 277.284 45.3407 278.221 38.5982C278.808 34.383 275.035 31.1493 270.951 32.4225C267.431 33.5197 265.233 35.9143 264.629 39.5797C264.141 42.541 263.803 45.5288 263.388 48.5045C262.871 52.1916 262.257 55.8667 261.842 59.5659C261.455 63.0022 263.707 66.0141 267.535 66.0093H267.533Z" fill="black"/>
</g>
<defs>
<clipPath id="clip0_2072_93">
<rect width="361" height="198" fill="white"/>
</clipPath>
</defs>
</svg>
