<svg width="38" height="38" viewBox="0 0 38 38" fill="none" xmlns="http://www.w3.org/2000/svg">
<rect width="38" height="38" rx="11" fill="black" fill-opacity="0.1"/>
<path d="M28.8964 8.86165C28.7535 8.76584 28.6107 8.76584 28.4678 8.81375C27.2772 9.34071 26.0389 8.95747 25.3245 7.99935C24.9912 7.5682 24.8007 6.99333 24.8007 6.46636C24.8007 6.32265 24.753 6.22683 24.6578 6.13102C24.5625 6.03521 24.4673 5.9873 24.3244 5.9873H19.4667C19.1809 5.9873 18.9904 6.17893 18.9904 6.46636V23.4729C18.9904 23.5208 18.9904 23.5208 18.9904 23.5687C18.8952 24.431 18.2284 25.0538 17.3712 25.0538C16.4663 25.0538 15.7043 24.2873 15.7043 23.3771C15.7043 22.5148 15.7821 21.8441 16.6394 21.7483C16.8775 21.7004 17.068 21.5088 17.068 21.2693V15.7122C17.068 15.4248 16.8775 15.2331 16.5917 15.2331C16.5917 15.2331 16.5441 15.2331 16.4965 15.2331C12.115 15.4248 9.2749 18.9698 9.2749 23.3771C9.2749 27.8803 12.8944 31.5211 17.3712 31.5211C21.5622 31.5211 25.0864 28.2635 25.4198 24.0957C25.4674 24.0478 25.4674 23.952 25.4674 23.9041V14.6583C26.5152 14.8978 27.6105 14.9936 28.7535 14.802C28.9917 14.7541 29.1345 14.5624 29.1345 14.3229V9.2449C29.1345 9.10118 29.0393 8.95747 28.8964 8.86165ZM28.182 13.9397C27.0867 14.0355 26.0865 13.9397 25.0864 13.6043C24.9435 13.5564 24.8007 13.6043 24.6578 13.6522C24.5149 13.748 24.4673 13.8918 24.4673 14.0355V23.7125C24.4673 23.7604 24.4673 23.8083 24.4197 23.8562C24.1815 27.5928 21.0383 30.563 17.3235 30.563C13.3707 30.563 10.1798 27.3533 10.1798 23.3771C10.1798 19.6405 12.942 16.5745 16.6092 16.2392V20.886C15.5138 21.2214 14.7042 22.2274 14.7042 23.3771C14.7042 24.8143 15.8948 26.0119 17.3235 26.0119C18.6094 26.0119 19.7048 25.0538 19.8953 23.8083C19.9429 23.7604 19.9429 23.6646 19.9429 23.6166V6.94542H23.8958C23.991 7.5682 24.2292 8.09516 24.5625 8.57422C25.3722 9.67605 26.8009 10.2509 28.182 9.91558V13.9397Z" fill="black"/>
<path fill-rule="evenodd" clip-rule="evenodd" d="M28.2721 8.30859L28.296 8.30057C28.558 8.21271 28.8842 8.20156 29.1981 8.41212C29.4372 8.5724 29.6761 8.86445 29.6761 9.24493V14.3229C29.6761 14.7985 29.3722 15.2297 28.8606 15.3327L28.852 15.3344L28.8433 15.3358C27.8575 15.5011 26.9109 15.4663 26.009 15.3169V23.9041L26.009 23.9078C26.009 23.9331 26.0092 24.0072 25.9957 24.0884C25.9897 24.1247 25.9777 24.1853 25.9495 24.2549C25.5382 28.6483 21.8056 32.0624 17.3714 32.0624C12.5927 32.0624 8.73389 28.1762 8.73389 23.3771C8.73389 18.7343 11.7509 14.8989 16.4731 14.6924L16.4849 14.6919H16.5918C16.8586 14.6919 17.1228 14.7838 17.3212 14.9833C17.5192 15.1825 17.6095 15.4464 17.6095 15.7122V21.2693C17.6095 21.8199 17.1811 22.1916 16.7464 22.279L16.7232 22.2837L16.6998 22.2863C16.5539 22.3026 16.4804 22.3387 16.4431 22.3649C16.4084 22.3893 16.3761 22.4251 16.346 22.4935C16.2717 22.6621 16.2458 22.9338 16.2458 23.3771C16.2458 23.9914 16.7685 24.5126 17.3714 24.5126C17.9302 24.5126 18.3726 24.1235 18.4494 23.5365V6.46639C18.4494 6.20062 18.5397 5.93666 18.7378 5.73745C18.9361 5.53797 19.2001 5.44604 19.4669 5.44604H24.3247C24.4597 5.44604 24.5964 5.46933 24.7301 5.52911C24.8614 5.58779 24.9625 5.66952 25.0419 5.74943C25.1214 5.82942 25.2024 5.9308 25.2603 6.062C25.3193 6.19545 25.3422 6.33178 25.3422 6.46639C25.3422 6.8753 25.494 7.33333 25.753 7.66828L25.7559 7.67203L25.7587 7.67583C26.3277 8.43895 27.2978 8.73977 28.249 8.3188L28.2721 8.30859ZM18.9907 23.5688C18.8954 24.4311 18.2287 25.0539 17.3714 25.0539C16.4665 25.0539 15.7045 24.2874 15.7045 23.3771C15.7045 22.5148 15.7824 21.8442 16.6396 21.7483C16.8633 21.7033 17.045 21.5315 17.0662 21.3123C17.0676 21.2981 17.0683 21.2838 17.0683 21.2693V15.7122C17.0683 15.6923 17.0673 15.6729 17.0656 15.6539C17.0414 15.3992 16.858 15.2332 16.592 15.2332H16.4968C12.1153 15.4248 9.27517 18.9698 9.27517 23.3771C9.27517 27.8803 12.8947 31.5211 17.3714 31.5211C21.5624 31.5211 25.0867 28.2635 25.42 24.0957C25.4677 24.0478 25.4677 23.952 25.4677 23.9041V14.6583C25.6467 14.6992 25.8271 14.736 26.009 14.7678C26.8912 14.9222 27.8061 14.9609 28.7538 14.802C28.9919 14.7541 29.1348 14.5625 29.1348 14.3229V9.24493C29.1348 9.10121 29.0395 8.95749 28.8967 8.86168C28.7538 8.76587 28.6109 8.76587 28.4681 8.81378C27.2774 9.34074 26.0392 8.95749 25.3248 7.99938C24.9914 7.56822 24.8009 6.99335 24.8009 6.46639C24.8009 6.32267 24.7533 6.22686 24.658 6.13105C24.5628 6.03524 24.4675 5.98733 24.3247 5.98733H19.4669C19.1812 5.98733 18.9907 6.17896 18.9907 6.46639V23.5688ZM16.527 20.9127C16.5543 20.9034 16.5818 20.8945 16.6094 20.886V16.2392C16.5819 16.2417 16.5544 16.2444 16.527 16.2472C16.3723 16.2631 16.2193 16.2839 16.0681 16.3094C12.6738 16.8818 10.18 19.8267 10.18 23.3771C10.18 27.3533 13.3709 30.563 17.3238 30.563C21.0386 30.563 24.1818 27.5929 24.4199 23.8562C24.4675 23.8083 24.4675 23.7604 24.4675 23.7125V14.0355C24.4675 13.8918 24.5152 13.7481 24.658 13.6523C24.8009 13.6044 24.9438 13.5565 25.0867 13.6044C26.0868 13.9397 27.0869 14.0355 28.1823 13.9397V9.91561C28.0022 9.95934 27.8213 9.98759 27.641 10.0012C26.4391 10.0921 25.2668 9.53239 24.5628 8.57425C24.2294 8.09519 23.9913 7.56822 23.8961 6.94545H19.9432V23.6167C19.9432 23.6646 19.9432 23.7604 19.8955 23.8083C19.705 25.0539 18.6097 26.012 17.3238 26.012C15.895 26.012 14.7044 24.8143 14.7044 23.3771C14.7044 22.2564 15.4737 21.2723 16.527 20.9127ZM20.4124 23.9968C20.1372 25.4522 18.842 26.5533 17.3238 26.5533C15.5931 26.5533 14.1631 25.1103 14.1631 23.3771C14.1631 22.1106 14.9601 21.0111 16.0681 20.5126V16.859C12.9835 17.4238 10.7213 20.1186 10.7213 23.3771C10.7213 27.0574 13.6729 30.0217 17.3238 30.0217C20.7494 30.0217 23.6595 27.277 23.8797 23.8218L23.8927 23.6188L23.9263 23.585V14.0355C23.9263 13.7683 24.022 13.4271 24.3566 13.2027L24.417 13.1622L24.486 13.1391C24.4928 13.1368 24.5005 13.1341 24.5091 13.1311C24.6334 13.0881 24.9368 12.9832 25.2588 13.0912C26.03 13.3497 26.8039 13.4555 27.641 13.4299V10.544C26.2618 10.634 24.9292 9.98698 24.1266 8.89476L24.1225 8.88915L24.1185 8.88343C23.8281 8.46609 23.597 8.00774 23.4573 7.48674H20.4845V23.6167L20.4845 23.6204C20.4845 23.6457 20.4847 23.7198 20.4712 23.801C20.4644 23.8423 20.4497 23.9152 20.4124 23.9968Z" fill="black"/>
</svg>
